<?xml version="1.0" encoding="iso-8859-1"?>
<!-- Generator: Adobe Illustrator 19.0.0, SVG Export Plug-In . SVG Version: 6.00 Build 0)  -->
<svg version="1.1" id="Capa_1" xmlns="http://www.w3.org/2000/svg" xmlns:xlink="http://www.w3.org/1999/xlink" x="0px" y="0px"
	 viewBox="0 0 300 300" style="enable-background:new 0 0 300 300;" xml:space="preserve">
<g id="XMLID_839_">
	<polygon id="XMLID_840_" style="fill:#FFE98F;" points="50,175 50,145 150,145 150,115 50,115 50,85 150,85 150,0 0,0 0,300 
		150,300 150,175 	"/>
	<polygon id="XMLID_841_" style="fill:#FFDA44;" points="150,0 150,85 250,85 250,115 150,115 150,145 250,145 250,175 150,175 
		150,300 250,210 300,249.999 300,0 	"/>
	<polygon id="XMLID_842_" style="fill:#FF9811;" points="150,300 300,249.999 250,210 	"/>
	<polygon id="XMLID_843_" style="fill:#FFFFFF;" points="50,115 150,115 250,115 250,85 150,85 50,85 	"/>
	<polygon id="XMLID_844_" style="fill:#FFFFFF;" points="50,175 150,175 250,175 250,145 150,145 50,145 	"/>
</g>
<g>
</g>
<g>
</g>
<g>
</g>
<g>
</g>
<g>
</g>
<g>
</g>
<g>
</g>
<g>
</g>
<g>
</g>
<g>
</g>
<g>
</g>
<g>
</g>
<g>
</g>
<g>
</g>
<g>
</g>
</svg>
