<svg xmlns="http://www.w3.org/2000/svg" xmlns:xlink="http://www.w3.org/1999/xlink" id="Capa_1" x="0" y="0" version="1.1" viewBox="0 0 58 58" xml:space="preserve" style="enable-background:new 0 0 58 58"><g id="XMLID_68_"><path id="XMLID_120_" d="M54.783,50H3.217C1.44,50,0,48.56,0,46.783V11.217C0,9.44,1.44,8,3.217,8h51.566 C56.56,8,58,9.44,58,11.217v35.566C58,48.56,56.56,50,54.783,50" style="fill:#3a79bd"/><path id="XMLID_119_" d="M14,17H5c-0.553,0-1-0.448-1-1s0.447-1,1-1h9c0.553,0,1,0.448,1,1S14.553,17,14,17" style="fill:#fff"/><path id="XMLID_118_" d="M27,17h-9c-0.553,0-1-0.448-1-1s0.447-1,1-1h9c0.553,0,1,0.448,1,1S27.553,17,27,17" style="fill:#fff"/><path id="XMLID_117_" d="M6,22H5c-0.553,0-1-0.448-1-1s0.447-1,1-1h1c0.553,0,1,0.448,1,1S6.553,22,6,22" style="fill:#fff"/><path id="XMLID_116_" d="M12,22h-2c-0.553,0-1-0.448-1-1s0.447-1,1-1h2c0.553,0,1,0.448,1,1S12.553,22,12,22" style="fill:#fff"/><path id="XMLID_115_" d="M17,22h-1c-0.553,0-1-0.448-1-1s0.447-1,1-1h1c0.553,0,1,0.448,1,1S17.553,22,17,22" style="fill:#fff"/><path id="XMLID_114_" d="M23,22h-2c-0.553,0-1-0.448-1-1s0.447-1,1-1h2c0.553,0,1,0.448,1,1S23.553,22,23,22" style="fill:#fff"/><path id="XMLID_113_" d="M27,22c-0.26,0-0.522-0.11-0.71-0.29C26.109,21.52,26,21.26,26,21 s0.109-0.52,0.29-0.71c0.37-0.37,1.04-0.37,1.42,0C27.89,20.48,28,20.74,28,21s-0.11,0.52-0.29,0.71C27.519,21.89,27.269,22,27,22" style="fill:#fff"/><rect id="XMLID_112_" width="16" height="10" x="37" y="15" style="fill:#2c91d0"/><path id="XMLID_109_" d="M54,26H36V14h18V26z M38,24h14v-8H38V24z" style="fill:#fff"/><rect id="XMLID_108_" width="9" height="6" x="5" y="37" style="fill:#1d6aaa"/><rect id="XMLID_107_" width="9" height="6" x="18" y="37" style="fill:#1d6aaa"/><rect id="XMLID_106_" width="9" height="6" x="31" y="37" style="fill:#1d6aaa"/><rect id="XMLID_105_" width="9" height="6" x="44" y="37" style="fill:#1d6aaa"/></g></svg>