<svg xmlns="http://www.w3.org/2000/svg" xmlns:xlink="http://www.w3.org/1999/xlink" width="28" height="26" version="1.1" viewBox="0 0 28 26"><title>cards</title><desc>Created with Sketch.</desc><g id="Page-3" fill="none" fill-rule="evenodd" stroke="none" stroke-width="1"><path id="cards" fill="#000" fill-rule="nonzero" d="M25.6666565,8.13530236 L25.3425795,8.13530236 L21.3355309,1.16308446 C21.025071,0.624002753 20.5237524,0.238703142 19.9238873,0.0787109237 C19.7008725,0.0193879665 19.4740842,-0.0061606716 19.2495381,0.00124788871 C18.873016,0.0137225969 18.5029469,0.118967733 18.1682059,0.313061118 L1.15706162,10.1781039 C0.412712638,10.6095981 -0.00340311007,11.3965942 2.09654103e-05,12.2028199 C0.00168280984,12.592423 0.102034025,12.9865475 0.30935362,13.347279 L3.50002097,18.8987421 L3.50002097,23.2429366 C3.50002097,24.524781 4.54647177,25.567209 5.83337357,25.567209 L25.6666565,25.567209 C26.9535036,25.567209 28,24.5248354 28,23.2429366 L28,10.4595203 C28,9.1776759 26.9535036,8.13530236 25.6666565,8.13530236 Z M3.50003008,16.558781 L3.05449256,15.7834969 L3.50003008,15.5251234 L3.50003008,16.558781 Z M3.50003008,14.1804697 L2.47480707,14.7750066 L1.898895,13.7728899 L3.50003008,12.844423 L3.50003008,14.1804697 Z M3.50003008,10.4595203 L3.50003008,11.4997693 L1.32030325,12.7637459 C1.00519496,12.2096292 1.19419431,11.5014035 1.74374709,11.1823996 L3.53191278,10.1454736 C3.51769408,10.2492479 3.50003008,10.3519872 3.50003008,10.4595203 Z M23.9977638,8.13530236 L16.2420641,8.13530236 L22.0589346,4.76179264 L23.9977638,8.13530236 Z M21.4793038,3.75324789 L13.9235409,8.13524789 L11.6198926,8.13524789 L20.9035011,2.75134906 L21.4793038,3.75324789 Z M18.7555476,1.31741131 C19.0198514,1.16417396 19.3274675,1.12162921 19.6220134,1.20110781 C19.9199498,1.28053194 20.1683396,1.47233738 20.3227219,1.74073427 L20.323925,1.74285878 L9.3013147,8.13530236 L6.99848673,8.13530236 L18.7555476,1.31741131 Z M26.8333009,23.2429366 C26.8333009,23.8835592 26.3097793,24.4050456 25.6666565,24.4050456 L5.83337357,24.4050456 C5.1902508,24.4050456 4.66672917,23.8835592 4.66672917,23.2429366 L4.66672917,10.4595203 C4.66672917,9.81889769 5.1902508,9.29741131 5.83337357,9.29741131 L25.6666565,9.29741131 C26.3097793,9.29741131 26.8333009,9.81889769 26.8333009,10.4595203 L26.8333009,23.2429366 Z M22.2580673,11.3570183 C21.7810898,11.3570183 21.3212021,11.5135613 20.9453964,11.7953728 C20.5699325,11.5135613 20.1102158,11.3570183 19.6330673,11.3570183 C18.4268662,11.3570183 17.4455673,12.3383172 17.4455673,13.5445183 C17.4455673,14.7507195 18.4268662,15.7320183 19.6330673,15.7320183 C20.1102158,15.7320183 20.5701035,15.5754753 20.9453964,15.2936638 C21.3212021,15.5754753 21.7810898,15.7320183 22.2580673,15.7320183 C23.4642685,15.7320183 24.4455673,14.7507195 24.4455673,13.5445183 C24.4455673,12.3383172 23.4642685,11.3570183 22.2580673,11.3570183 Z M18.5393173,13.5445183 C18.5393173,12.9413892 19.0299382,12.4507683 19.6330673,12.4507683 C19.9466659,12.4507683 20.2454534,12.5857781 20.4529526,12.8211907 C20.4529526,12.8213331 20.453095,12.8214755 20.4532374,12.8216179 C20.6296901,13.0211418 20.7268173,13.2779168 20.7268173,13.5445183 C20.7268173,13.8111199 20.6296901,14.0678948 20.4529526,14.267846 C20.2454534,14.5032586 19.9466659,14.6382683 19.6330673,14.6382683 C19.0299382,14.6382683 18.5393173,14.1476474 18.5393173,13.5445183 L18.5393173,13.5445183 Z M22.2997543,14.6382683 C22.0752376,14.6382683 21.8397591,14.5567017 21.65625,14.4375 C21.765625,14.109375 21.8203125,13.890625 21.8203125,13.5625 C21.8203125,13.234375 21.765625,13.015625 21.65625,12.6875 C21.8397591,12.5682983 22.0752376,12.4507683 22.2997543,12.4507683 C22.9199945,12.4507683 23.4245346,12.9413892 23.4245346,13.5445183 C23.4245346,14.1476474 22.9199945,14.6382683 22.2997543,14.6382683 Z M10.1943876,20.2122918 L7.50332513,20.2122918 C7.19527044,20.2122918 6.94556732,20.4620496 6.94556732,20.7700496 C6.94556732,21.0780496 7.19527044,21.3278074 7.50332513,21.3278074 L10.1943876,21.3278074 C10.5024423,21.3278074 10.7521454,21.0780496 10.7521454,20.7700496 C10.7521454,20.4620496 10.5024423,20.2122918 10.1943876,20.2122918 Z M14.7382626,20.2122918 L12.0472548,20.2122918 C11.7392001,20.2122918 11.489497,20.4620496 11.489497,20.7700496 C11.489497,21.0780496 11.7392001,21.3278074 12.0472548,21.3278074 L14.7383173,21.3278074 C15.046372,21.3278074 15.2960751,21.0780496 15.2960751,20.7700496 C15.2960751,20.4620496 15.0463173,20.2122918 14.7382626,20.2122918 Z M19.2821923,20.2122918 L16.5911298,20.2122918 C16.2830751,20.2122918 16.033372,20.4620496 16.033372,20.7700496 C16.033372,21.0780496 16.2830751,21.3278074 16.5911298,21.3278074 L19.2821923,21.3278074 C19.590247,21.3278074 19.8399501,21.0780496 19.8399501,20.7700496 C19.8399501,20.4620496 19.590247,20.2122918 19.2821923,20.2122918 Z M23.8260673,20.2122918 L21.1350048,20.2122918 C20.8269501,20.2122918 20.577247,20.4620496 20.577247,20.7700496 C20.577247,21.0780496 20.8269501,21.3278074 21.1350048,21.3278074 L23.8260673,21.3278074 C24.134122,21.3278074 24.3838251,21.0780496 24.3838251,20.7700496 C24.3838251,20.4620496 24.134122,20.2122918 23.8260673,20.2122918 Z M9.37566107,11.5491902 L8.19145794,11.5491902 C7.57507513,11.5491902 7.07359076,12.0506199 7.07359076,12.6670027 L7.07359076,13.8512058 C7.07359076,14.4675886 7.57507513,14.9690183 8.19145794,14.9690183 L9.37566107,14.9690183 C9.99204388,14.9690183 10.4935283,14.4675886 10.4935283,13.8512058 L10.4935283,12.6670027 C10.4935283,12.0506199 9.99204388,11.5491902 9.37566107,11.5491902 Z M9.43836625,13.9153269 L8.12725482,13.9128513 L8.12991121,12.6028269 L9.43975482,12.6053629 L9.43836625,13.9153269 Z"/></g></svg>