<svg xmlns="http://www.w3.org/2000/svg" xmlns:xlink="http://www.w3.org/1999/xlink" width="13" height="13" version="1.1" viewBox="0 0 13 13"><title>close</title><desc>Created with Sketch.</desc><g id="icons" fill="none" fill-rule="evenodd" stroke="none" stroke-width="1"><path id="close" fill="#000" d="M7.16823074,6.39289607 L12.625227,11.8498763 C12.8393062,12.0639796 12.8393062,12.411099 12.625227,12.6252023 C12.5181875,12.7322407 12.3778538,12.7857864 12.2375466,12.7857864 C12.0972659,12.7857864 11.9569322,12.7322672 11.8498661,12.6252023 L6.3928932,7.16823308 L0.935920294,12.6252023 C0.828854214,12.7322672 0.688520512,12.7857864 0.548239825,12.7857864 C0.407932631,12.7857864 0.267598928,12.7322407 0.160559357,12.6252023 C-0.0535197857,12.411099 -0.0535197857,12.0639796 0.160559357,11.8498763 L5.61755566,6.39289607 L0.160559357,0.935903475 C-0.0535197857,0.721800156 -0.0535197857,0.374680809 0.160559357,0.16057749 C0.374665008,-0.0535258298 0.721788135,-0.0535258298 0.935893786,0.16057749 L6.3928932,5.61756082 L11.8498926,0.16057749 C12.0639983,-0.0535258298 12.4111214,-0.0535258298 12.625227,0.16057749 C12.8393062,0.374680809 12.8393062,0.721800156 12.625227,0.935903475 L7.16823074,6.39289607 Z"/></g></svg>