<?xml version="1.0" encoding="iso-8859-1"?>
<!-- Generator: Adobe Illustrator 19.0.0, SVG Export Plug-In . SVG Version: 6.00 Build 0)  -->
<svg version="1.1" id="Layer_1" xmlns="http://www.w3.org/2000/svg" xmlns:xlink="http://www.w3.org/1999/xlink" x="0px" y="0px"
	 viewBox="0 0 512.16 512.16" style="enable-background:new 0 0 512.16 512.16;" xml:space="preserve">
<g transform="translate(1 1)">
	<g>
		<g>
			<path d="M272.067,336.147H408.6c5.12,0,8.533-3.413,8.533-8.533v-76.8c0-5.12-3.413-8.533-8.533-8.533H272.067
				c-5.12,0-8.533,3.413-8.533,8.533v76.8C263.533,332.733,266.947,336.147,272.067,336.147z M280.6,259.347h119.467v59.733H280.6
				V259.347z"/>
			<path d="M41.667,225.213h68.267c5.12,0,8.533-3.413,8.533-8.533s-3.413-8.533-8.533-8.533H41.667
				c-5.12,0-8.533,3.413-8.533,8.533S36.547,225.213,41.667,225.213z"/>
			<path d="M144.067,225.213h68.267c5.12,0,8.533-3.413,8.533-8.533s-3.413-8.533-8.533-8.533h-68.267
				c-5.12,0-8.533,3.413-8.533,8.533S138.947,225.213,144.067,225.213z"/>
			<path d="M41.667,259.347H152.6c5.12,0,8.533-3.413,8.533-8.533s-3.413-8.533-8.533-8.533H41.667c-5.12,0-8.533,3.413-8.533,8.533
				S36.547,259.347,41.667,259.347z"/>
			<path d="M212.333,242.28h-25.6c-5.12,0-8.533,3.413-8.533,8.533s3.413,8.533,8.533,8.533h25.6c5.12,0,8.533-3.413,8.533-8.533
				S217.453,242.28,212.333,242.28z"/>
			<path d="M503.32,136.467c-5.973-7.68-13.653-11.947-23.04-12.8l-20.48-2.482V97.213V80.147c0-18.773-15.36-34.133-34.133-34.133
				H33.133C14.36,46.013-1,61.373-1,80.147v17.067v68.267v187.733c0,15.413,10.357,28.518,24.453,32.718
				c-0.43,17.262,12.631,32.248,30.161,33.842l394.24,44.373c0.853,0,2.56,0,3.413,0c17.067,0,32.427-12.8,34.133-29.013
				l25.6-273.92C511.853,152.68,509.293,143.293,503.32,136.467z M16.067,105.747h426.667v22.187v29.013H16.067V105.747z
				 M33.133,63.08h392.533c9.387,0,17.067,7.68,17.067,17.067v8.533H16.067v-8.533C16.067,70.76,23.747,63.08,33.133,63.08z
				 M16.067,353.213v-179.2h426.667v179.2c0,9.387-7.68,17.067-17.067,17.067H33.987h-0.853
				C23.747,370.28,16.067,362.6,16.067,353.213z M493.933,157.8l-25.6,273.92c-0.853,9.387-9.387,16.213-18.773,15.36
				L56.173,402.707c-8.533-0.853-14.507-7.68-15.36-15.36h384.853c18.773,0,34.133-15.36,34.133-34.133V165.48v-28.16l19.627,1.707
				c4.267,0,8.533,2.56,11.093,5.973C493.08,148.413,494.787,153.533,493.933,157.8z"/>
		</g>
	</g>
</g>
<g>
</g>
<g>
</g>
<g>
</g>
<g>
</g>
<g>
</g>
<g>
</g>
<g>
</g>
<g>
</g>
<g>
</g>
<g>
</g>
<g>
</g>
<g>
</g>
<g>
</g>
<g>
</g>
<g>
</g>
</svg>
