<svg xmlns="http://www.w3.org/2000/svg" xmlns:xlink="http://www.w3.org/1999/xlink" id="Layer_1" width="32" height="32" data-name="Layer 1" viewBox="0 0 512 512"><linearGradient id="linear-gradient" x1="256" x2="256" y1="36" y2="472.018" gradientUnits="userSpaceOnUse"><stop offset="0" stop-color="#00efd1"/><stop offset="1" stop-color="#00acea"/></linearGradient><linearGradient id="linear-gradient-3" x1="255.991" x2="255.991" y1="36" y2="472.018" xlink:href="#linear-gradient"/><linearGradient id="linear-gradient-4" x1="292.241" x2="292.241" y1="36" y2="472.018" xlink:href="#linear-gradient"/><path fill="url(#linear-gradient)" d="m256 102.322c-84.738 0-153.678 68.94-153.678 153.678s68.94 153.678 153.678 153.678 153.678-68.94 153.678-153.678-68.94-153.678-153.678-153.678zm0 295.356c-78.121 0-141.678-63.556-141.678-141.678s63.557-141.678 141.678-141.678 141.678 63.556 141.678 141.678-63.557 141.678-141.678 141.678z"/><path fill="url(#linear-gradient)" d="m498.7 214.47-48.332-4.665a196.834 196.834 0 0 0 -24.727-58.778l30.857-37.243a6 6 0 0 0 -.344-8.042l-49.528-50.163a6 6 0 0 0 -8.095-.406l-37.286 30.879a201.657 201.657 0 0 0 -58.734-24.792l-4.663-48.615a6.2 6.2 0 0 0 -5.972-5.645h-71.117a6.2 6.2 0 0 0 -5.973 5.645l-4.663 48.5a197.021 197.021 0 0 0 -58.778 24.811l-37.245-30.81a6 6 0 0 0 -8.07.392l-50.161 50.169a6.007 6.007 0 0 0 -.378 8.073l30.879 37.29a201.646 201.646 0 0 0 -24.792 58.73l-48.278 4.669a5.9 5.9 0 0 0 -5.3 5.973v71.116a5.9 5.9 0 0 0 5.3 5.972l48.336 4.67a196.834 196.834 0 0 0 24.727 58.778l-30.857 37.238a6 6 0 0 0 .371 8.07l50.159 50.162a6 6 0 0 0 8.067.379l37.288-30.879a201.618 201.618 0 0 0 58.733 24.792l4.662 48.615a6.2 6.2 0 0 0 5.973 5.645h71.117a6.2 6.2 0 0 0 5.973-5.645l4.663-48.5a197 197 0 0 0 58.779-24.812l37.242 30.814a6 6 0 0 0 8.07-.392l50.163-50.169a6.007 6.007 0 0 0 .378-8.073l-30.878-37.29a201.665 201.665 0 0 0 24.793-58.739l47.641-4.664a5.9 5.9 0 0 0 5.3-5.972v-71.116a5.9 5.9 0 0 0 -5.3-5.972zm-6.7 71.645-46.53 4.552a5.929 5.929 0 0 0 -5.221 4.7 189.7 189.7 0 0 1 -26.449 62.785 6 6 0 0 0 .436 7.08l30.176 36.431-42.435 42.437-36.429-30.17a6 6 0 0 0 -7.154-.371 184.329 184.329 0 0 1 -62.707 26.431 6.259 6.259 0 0 0 -4.7 5.51l-4.56 47.5h-60.219l-4.556-47.5a6.128 6.128 0 0 0 -4.7-5.4 189.943 189.943 0 0 1 -62.781-26.537 6 6 0 0 0 -7.08.393l-36.432 30.156-42.441-42.442 30.169-36.435a6 6 0 0 0 .371-7.157 184.317 184.317 0 0 1 -26.432-62.707 5.864 5.864 0 0 0 -5.168-4.7l-47.158-4.563v-60.216l47.158-4.558a5.931 5.931 0 0 0 5.228-4.7 189.745 189.745 0 0 1 26.452-62.782 6 6 0 0 0 -.436-7.08l-30.177-36.435 42.433-42.437 36.43 30.17a6 6 0 0 0 7.154.371 184.307 184.307 0 0 1 62.706-26.431 6.26 6.26 0 0 0 4.7-5.51l4.56-47.5h60.219l4.555 47.5a6.129 6.129 0 0 0 4.706 5.4 189.944 189.944 0 0 1 62.782 26.535 6 6 0 0 0 7.08-.394l36.4-30.133 41.852 42.4-30.192 36.461a6 6 0 0 0 -.371 7.157 184.317 184.317 0 0 1 26.432 62.707 5.864 5.864 0 0 0 5.168 4.705l47.161 4.554z"/><path fill="url(#linear-gradient-3)" d="m309.218 170.914a38.626 38.626 0 0 0 -54.627 0l-33.07 33.069a22.313 22.313 0 0 0 0 31.557l10.063 10.06-68.59 68.588a5.99 5.99 0 0 0 -1.7 3.395l-3.99 27.967a6 6 0 0 0 5.939 6.848c.145 0 .289 0 .435-.016l36.009-2.616a6 6 0 0 0 5.534-5.368l1.97-19.067 19.157-2.042a6 6 0 0 0 5.337-6.533l-1.585-16.756 5.646-5.647 15.536 1.745a6 6 0 0 0 5.013-1.822l11.694-12.267 10.828 10.828a22.339 22.339 0 0 0 31.556 0l33.07-33.069a38.672 38.672 0 0 0 0-54.628zm-59.557 112.923-15.447-1.737a5.98 5.98 0 0 0 -4.912 1.72l-9.687 9.686a6 6 0 0 0 -1.731 4.81l1.3 13.669-18.092 1.93a6 6 0 0 0 -5.332 5.349l-1.953 18.9-23.568 1.712 2.657-18.615 67.174-67.175 19.43 19.432zm85.3-32.558-33.069 33.069a10.328 10.328 0 0 1 -14.587 0l-57.294-57.294a10.314 10.314 0 0 1 0-14.586l33.07-33.069a26.628 26.628 0 0 1 37.657 0l34.222 34.223a26.659 26.659 0 0 1 -.004 37.657z"/><path fill="url(#linear-gradient-4)" d="m292.683 194.37a16.9 16.9 0 0 0 -23.866 0l-7.5 7.5a6 6 0 0 0 0 8.485l42.683 42.68a6 6 0 0 0 8.484 0l7.5-7.5a16.9 16.9 0 0 0 0-23.866zm18.817 42.682-3.256 3.255-34.2-34.2 3.255-3.255a4.883 4.883 0 0 1 6.9 0l27.3 27.3a4.884 4.884 0 0 1 .001 6.9z"/></svg>