<svg xmlns="http://www.w3.org/2000/svg" xmlns:xlink="http://www.w3.org/1999/xlink" width="24" height="28" version="1.1" viewBox="0 0 24 28"><title>logins</title><desc>Created with Sketch.</desc><g id="Page-3" fill="none" fill-rule="evenodd" stroke="none" stroke-width="1"><path id="logins" fill="#000" fill-rule="nonzero" d="M3.25276868,19.5905387 C5.35631537,21.7612913 8.29993662,23.1188518 11.5594259,23.1188518 C17.9305513,23.1188518 23.1188518,17.9305513 23.1188518,11.5594259 C23.1188518,5.18830046 17.9305513,0 11.5594259,0 C5.18830046,0 0,5.18830046 0,11.5594259 C0,14.5971355 1.18282498,17.3660212 3.10491556,19.4292443 C3.14523914,19.4964503 3.19900391,19.5434945 3.25276868,19.5905387 Z M11.5594259,21.7881737 C9.04592283,21.7881737 6.73403765,20.8741726 4.95307959,19.3620384 C7.9504656,18.3673901 9.05936402,17.1576827 9.4693204,16.3512112 C10.0405711,16.5998732 10.6790278,16.7342852 11.3846904,16.7410058 C11.3981316,16.7410058 11.4182934,16.7410058 11.4317346,16.7410058 C11.4384552,16.7410058 11.4787787,16.7410058 11.4922199,16.7410058 C11.5056611,16.7410058 11.5258229,16.7410058 11.5392641,16.7410058 C12.3054121,16.7275646 12.9976335,16.5729909 13.5957666,16.2840052 C13.9788406,17.0904768 15.0675772,18.3405077 18.152331,19.3620384 C16.3780936,20.8741726 14.072929,21.7881737 11.5594259,21.7881737 Z M7.82277427,9.42227623 C7.82277427,9.40883503 7.82277427,9.39539384 7.82277427,9.38195265 C7.98406859,5.8805219 10.5647776,5.60497744 11.357808,5.60497744 C11.391411,5.60497744 11.4182934,5.60497744 11.4384552,5.60497744 C11.458617,5.60497744 11.4720581,5.60497744 11.4922199,5.60497744 C11.5123817,5.60497744 11.5325435,5.60497744 11.5728671,5.60497744 C12.3591769,5.60497744 14.9466065,5.8805219 15.1079008,9.38195265 C15.1079008,9.39539384 15.1079008,9.40883503 15.1079008,9.42227623 C15.1146214,9.45587921 15.4439306,12.6952067 13.9317964,14.3955176 C13.3336634,15.0675772 12.5339124,15.4036071 11.4922199,15.4103277 C11.4854993,15.4103277 11.4720581,15.4103277 11.4720581,15.4103277 L11.4720581,15.4103277 C11.4653375,15.4103277 11.458617,15.4103277 11.4518964,15.4103277 C10.4034833,15.3968865 9.61045293,15.0675772 9.01231984,14.3955176 C7.49346505,12.7086479 7.81605368,9.45587921 7.82277427,9.42227623 Z M11.5594259,1.3306781 C17.1980063,1.3306781 21.7881737,5.92084548 21.7881737,11.5594259 C21.7881737,14.1401349 20.8204078,16.5057849 19.2410676,18.3069047 C14.8995623,17.0434326 14.7315474,15.5111366 14.7315474,15.4909748 C14.7315474,15.5178572 14.7315474,15.5245778 14.7315474,15.5245778 L14.6845033,15.5245778 C14.7651504,15.4439306 14.8457976,15.3632835 14.9264447,15.2759157 C16.7746087,13.1992514 16.4654613,9.64405591 16.4318583,9.29458489 C16.2504022,5.58481565 13.7032962,4.26757875 11.5728671,4.26757875 C11.5325435,4.26757875 11.4922199,4.26757875 11.4653375,4.26757875 C11.4384552,4.26757875 11.4048522,4.26757875 11.357808,4.26757875 C9.22737893,4.26757875 6.67355228,5.58481565 6.49881677,9.29458489 C6.46521379,9.63733531 6.16278695,13.1925308 8.00423038,15.2759157 C8.11175992,15.3968865 8.22601006,15.5111366 8.3402602,15.6186662 C8.19912767,16.0084608 7.48674445,17.2450505 3.87778415,18.3001841 C2.29172339,16.4990643 1.3306781,14.1401349 1.3306781,11.5594259 C1.3306781,5.92084548 5.92084548,1.3306781 11.5594259,1.3306781 Z M18.7843542,25.7995917 L18.6331223,25.8487949 L18.6331223,25.6897147 C18.6331223,25.3695921 18.3736737,25.1101435 18.0535512,25.1101435 C17.7335796,25.1101435 17.47398,25.3695921 17.47398,25.6897147 L17.47398,25.8487949 L17.3227482,25.7995917 C17.0183224,25.7005816 16.691408,25.8672084 16.5925489,26.1716341 C16.4935388,26.4760599 16.6601655,26.8031252 16.9645913,26.9019844 L17.1158232,26.9511875 L17.0223975,27.0797799 C16.8341878,27.3387757 16.8915412,27.7011586 17.1505371,27.8893683 C17.2534713,27.9640787 17.372706,28 17.4907333,28 C17.6700381,28 17.8467771,27.9171394 17.9601255,27.7610778 L18.0535512,27.6324855 L18.1469769,27.7610778 C18.2604762,27.9172904 18.4372152,28 18.6163691,28 C18.7345473,28 18.853782,27.9640787 18.9565653,27.8893683 C19.2155612,27.7011586 19.2729146,27.3387757 19.0848558,27.0797799 L18.9912792,26.9511875 L19.1425111,26.9019844 C19.4469368,26.8031252 19.6135636,26.4760599 19.5147044,26.1716341 C19.4156943,25.8672084 19.0889309,25.7007326 18.7843542,25.7995917 L18.7843542,25.7995917 Z M14.3964689,25.7995917 L14.245237,25.8487949 L14.245237,25.6897147 C14.245237,25.3695921 13.9856374,25.1101435 13.6656658,25.1101435 C13.3455433,25.1101435 13.0860947,25.3695921 13.0860947,25.6897147 L13.0860947,25.8487949 L12.9348628,25.7995917 C12.6302861,25.7005816 12.3033717,25.8672084 12.2045126,26.1716341 C12.1056535,26.4760599 12.2721292,26.8031252 12.576555,26.9019844 L12.7277869,26.9511875 L12.6343612,27.0797799 C12.4463024,27.3387757 12.5036558,27.7011586 12.7625008,27.8893683 C12.865435,27.9640787 12.9846697,28 13.1028479,28 C13.2820018,28 13.4587408,27.9171394 13.5720892,27.7610778 L13.6655149,27.6324855 L13.7590915,27.7610778 C13.8724399,27.9172904 14.0491789,28 14.2283328,28 C14.346511,28 14.4657457,27.9640787 14.568529,27.8893683 C14.8275249,27.7011586 14.8850292,27.3387757 14.6968195,27.0797799 L14.6033938,26.9511875 L14.7546257,26.9019844 C15.0590515,26.8031252 15.2255273,26.4760599 15.1266681,26.1716341 C15.027809,25.8672084 14.7008946,25.7007326 14.3964689,25.7995917 L14.3964689,25.7995917 Z M10.0084898,25.7995917 L9.857258,25.8487949 L9.857258,25.6897147 C9.857258,25.3695921 9.59780934,25.1101435 9.27768684,25.1101435 C8.95756431,25.1101435 8.69811569,25.3695921 8.69811569,25.6897147 L8.69811569,25.8487949 L8.54688382,25.7995917 C8.24245804,25.7005816 7.91554366,25.8672084 7.81653359,26.1716341 C7.71767448,26.4760599 7.88430118,26.8031252 8.18872696,26.9019844 L8.33995883,26.9511875 L8.2463822,27.0797799 C8.05832345,27.3387757 8.11567685,27.7011586 8.37467271,27.8893683 C8.47760698,27.9640787 8.59669073,28 8.71486889,28 C8.89402279,28 9.07076182,27.9171394 9.18411025,27.7610778 L9.27768684,27.6324855 L9.37111252,27.7610778 C9.48446091,27.9172904 9.66119994,28 9.84050476,28 C9.958532,28 10.0777667,27.9640787 10.1807009,27.8893683 C10.4395459,27.7011586 10.4970502,27.3387757 10.3088405,27.0797799 L10.2154149,26.9511875 L10.3666467,26.9019844 C10.6710725,26.8031252 10.8375483,26.4760599 10.7386891,26.1716341 C10.6399809,25.8672084 10.3129156,25.7007326 10.0084898,25.7995917 L10.0084898,25.7995917 Z M5.6204686,25.7995917 L5.46923673,25.8487949 L5.46923673,25.6897147 C5.46923673,25.3695921 5.20978811,25.1101435 4.88966558,25.1101435 C4.569694,25.1101435 4.31009442,25.3695921 4.31009442,25.6897147 L4.31009442,25.8487949 L4.15886259,25.7995917 C3.85443681,25.7005816 3.52752243,25.8672084 3.42866328,26.1716341 C3.32965321,26.4760599 3.49627992,26.8031252 3.80070573,26.9019844 L3.95193756,26.9511875 L3.85851189,27.0797799 C3.67030222,27.3387757 3.72765562,27.7011586 3.98665148,27.8893683 C4.08958571,27.9640787 4.20866946,28 4.32684766,28 C4.50600156,28 4.68274059,27.9171394 4.79623994,27.7610778 L4.88966558,27.6324855 L4.98309125,27.7610778 C5.0965906,27.9172904 5.27332963,28 5.45248353,28 C5.57066169,28 5.6898964,27.9640787 5.79267971,27.8893683 C6.05167557,27.7011586 6.10902897,27.3387757 5.92081926,27.0797799 L5.82739363,26.9511875 L5.97862546,26.9019844 C6.28305124,26.8031252 6.44967794,26.4760599 6.35066787,26.1716341 C6.25195968,25.8672084 5.92489438,25.7007326 5.6204686,25.7995917 L5.6204686,25.7995917 Z"/></g></svg>