<svg xmlns="http://www.w3.org/2000/svg" id="Capa_1" width="48" height="48" enable-background="new 0 0 512 512" viewBox="0 0 512 512"><path d="m412.348 349.393c-3.069-37.872-34.848-67.758-73.498-67.758l-33.122-.001c-.004 0-.008-.001-.013-.001h-25.634v-38.601c18.398-15.091 30.749-37.291 32.82-62.363h9.381c13.271 0 24.067-10.796 24.067-24.067v-33.136c0-13.271-10.796-24.067-24.067-24.067h-9.067v-25.591c0-.014.002-.027.002-.041s-.002-.027-.002-.041v-24.81c0-26.972-21.944-48.916-48.917-48.916h-82.832c-26.973 0-48.917 21.944-48.917 48.917v24.818c0 .011-.002.022-.002.033s.002.022.002.033v25.602h-9.067c-13.27 0-24.066 10.796-24.066 24.066v33.133c0 13.27 10.796 24.066 24.066 24.066h9.382c2.07 25.071 14.42 47.27 32.817 62.361v38.603h-25.632c-.013 0-.026.002-.039.002l-33.096.002c-40.673 0-73.763 33.09-73.763 73.763v99.4c0 .723-.006 1.435-.011 2.132-.05 6.433-.102 13.085 4.542 17.765 2.745 2.766 6.531 4.169 11.252 4.169h97.405c4.142 0 7.5-3.358 7.5-7.5s-3.358-7.5-7.5-7.5h-31.934v-42.2c0-4.142-3.358-7.5-7.5-7.5s-7.5 3.358-7.5 7.5v42.2h-50.471c-.209 0-.385-.007-.532-.018-.304-1.51-.279-4.628-.263-6.799.006-.736.012-1.487.012-2.25v-99.4c0-32.402 26.361-58.763 58.763-58.763l25.949-.001c3.826 46.312 42.736 82.831 90.019 82.831 47.284 0 86.194-36.519 90.019-82.832h25.949c29.863 0 54.577 22.397 58.269 51.273-.1 0-.198-.008-.298-.008-45.243 0-82.05 36.807-82.05 82.05 0 12.093 2.651 23.571 7.368 33.917h-145.801c-4.142 0-7.5 3.358-7.5 7.5s3.358 7.5 7.5 7.5h154.652c14.97 20.095 38.905 33.135 65.831 33.135 45.243 0 82.05-36.808 82.05-82.05 0-39.934-28.682-73.277-66.523-80.557zm-90.066-234.993c5 0 9.067 4.067 9.067 9.067v33.136c0 4.999-4.067 9.067-9.067 9.067h-9.067v-51.27zm-140.816-99.4h82.832c18.702 0 33.917 15.215 33.917 33.917v17.351h-17.35c-4.999 0-9.067-4.067-9.067-9.067v-.784h.785c4.142 0 7.5-3.358 7.5-7.5s-3.358-7.5-7.5-7.5h-99.401c-4.142 0-7.5 3.358-7.5 7.5s3.358 7.5 7.5 7.5h.782v.784c0 5-4.067 9.067-9.066 9.067h-17.349v-17.351c0-18.702 15.215-33.917 33.917-33.917zm-67.05 141.602v-33.133c0-4.999 4.067-9.066 9.066-9.066h9.067v51.266h-9.068c-4.998 0-9.065-4.068-9.065-9.067zm33.134 16.567-.001-91.902h17.348c13.27 0 24.066-10.796 24.066-24.067v-.784h67.834v.784c0 13.271 10.796 24.067 24.067 24.067h17.35v91.902c0 41.539-33.794 75.333-75.332 75.333s-75.332-33.794-75.332-75.333zm75.332 90.333c15.234 0 29.595-3.796 42.198-10.483v36.115c0 .004.001.009.001.013-.007 23.263-18.935 42.187-42.2 42.187-23.269 0-42.2-18.931-42.2-42.2 0-.007-.001-.013-.001-.019v-36.097c12.604 6.687 26.967 10.484 42.202 10.484zm-.001 100.964c-39.008 0-71.186-29.801-74.962-67.832l18.252-.001c3.683 28.01 27.711 49.699 56.71 49.699s53.027-21.69 56.71-49.699h18.252c-3.775 38.032-35.953 67.833-74.962 67.833zm173.94 132.534c-36.972 0-67.05-30.079-67.05-67.05s30.079-67.05 67.05-67.05 67.05 30.079 67.05 67.05-30.078 67.05-67.05 67.05z"/><path d="m438.238 405.883h-17.35v-17.349c0-4.142-3.358-7.5-7.5-7.5h-33.133c-4.142 0-7.5 3.358-7.5 7.5v17.349h-17.35c-4.142 0-7.5 3.358-7.5 7.5v33.133c0 4.142 3.358 7.5 7.5 7.5h17.35v17.35c0 4.142 3.358 7.5 7.5 7.5h33.133c4.142 0 7.5-3.358 7.5-7.5v-17.35h17.35c4.142 0 7.5-3.358 7.5-7.5v-33.133c0-4.142-3.358-7.5-7.5-7.5zm-7.5 33.134h-17.35c-4.142 0-7.5 3.358-7.5 7.5v17.35h-18.133v-17.35c0-4.142-3.358-7.5-7.5-7.5h-17.35v-18.133h17.35c4.142 0 7.5-3.358 7.5-7.5v-17.349h18.133v17.349c0 4.142 3.358 7.5 7.5 7.5h17.35z"/></svg>