<?xml version="1.0" encoding="iso-8859-1"?>
<!-- Generator: Adobe Illustrator 18.0.0, SVG Export Plug-In . SVG Version: 6.00 Build 0)  -->
<!DOCTYPE svg PUBLIC "-//W3C//DTD SVG 1.1//EN" "http://www.w3.org/Graphics/SVG/1.1/DTD/svg11.dtd">
<svg version="1.1" id="Capa_1" xmlns="http://www.w3.org/2000/svg" xmlns:xlink="http://www.w3.org/1999/xlink" x="0px" y="0px"
	 viewBox="0 0 60 60" style="enable-background:new 0 0 60 60;" xml:space="preserve">
<g>
	<path d="M52,42v-1c0-3.859-3.14-7-7-7s-7,3.141-7,7v1h-4v18h22V42H52z M40,41c0-2.757,2.243-5,5-5s5,2.243,5,5v1H40V41z M54,58H36
		V44h2h14h2V58z"/>
	<path d="M45,47c-2.206,0-4,1.794-4,4c0,1.859,1.28,3.411,3,3.858V56c0,0.553,0.448,1,1,1s1-0.447,1-1v-1.142
		c1.72-0.447,3-1.999,3-3.858C49,48.794,47.206,47,45,47z M45,53c-1.103,0-2-0.897-2-2s0.897-2,2-2s2,0.897,2,2S46.103,53,45,53z"/>
	<path d="M11,18h13c0.552,0,1-0.447,1-1s-0.448-1-1-1H11c-0.552,0-1,0.447-1,1S10.448,18,11,18z"/>
	<path d="M11,46c-0.552,0-1,0.447-1,1s0.448,1,1,1h13c0.552,0,1-0.447,1-1s-0.448-1-1-1H11z"/>
	<path d="M40,22H11c-0.552,0-1,0.447-1,1s0.448,1,1,1h29c0.552,0,1-0.447,1-1S40.552,22,40,22z"/>
	<path d="M36,35c0-0.553-0.448-1-1-1H11c-0.552,0-1,0.447-1,1s0.448,1,1,1h24C35.552,36,36,35.553,36,35z"/>
	<path d="M31,41c0-0.553-0.448-1-1-1H11c-0.552,0-1,0.447-1,1s0.448,1,1,1h19C30.552,42,31,41.553,31,41z"/>
	<path d="M11,30h14c0.552,0,1-0.447,1-1s-0.448-1-1-1H11c-0.552,0-1,0.447-1,1S10.448,30,11,30z"/>
	<path d="M41,29c0-0.553-0.448-1-1-1h-7c-0.552,0-1,0.447-1,1s0.448,1,1,1h7C40.552,30,41,29.553,41,29z"/>
	<path d="M29.71,29.71C29.89,29.52,30,29.26,30,29c0-0.261-0.11-0.521-0.29-0.71c-0.37-0.37-1.04-0.37-1.42,0
		C28.11,28.479,28,28.739,28,29c0,0.26,0.11,0.52,0.29,0.71C28.48,29.89,28.74,30,29,30C29.27,30,29.53,29.89,29.71,29.71z"/>
	<path d="M31,56H6V8h7v2c0,0.553,0.448,1,1,1h23c0.552,0,1-0.447,1-1V8h7v23c0,0.553,0.448,1,1,1s1-0.447,1-1V7c0-0.553-0.448-1-1-1
		h-8V4c0-0.553-0.448-1-1-1h-6V1c0-0.553-0.448-1-1-1h-9c-0.552,0-1,0.447-1,1v2h-6c-0.552,0-1,0.447-1,1v2H5C4.448,6,4,6.447,4,7
		v50c0,0.553,0.448,1,1,1h26c0.552,0,1-0.447,1-1S31.552,56,31,56z M22,2h7v2v2h-7V4V2z M15,5h5v2c0,0.553,0.448,1,1,1h9
		c0.552,0,1-0.447,1-1V5h5v2v2H15V7V5z"/>
</g>
<g>
</g>
<g>
</g>
<g>
</g>
<g>
</g>
<g>
</g>
<g>
</g>
<g>
</g>
<g>
</g>
<g>
</g>
<g>
</g>
<g>
</g>
<g>
</g>
<g>
</g>
<g>
</g>
<g>
</g>
</svg>
