<svg xmlns="http://www.w3.org/2000/svg" xmlns:xlink="http://www.w3.org/1999/xlink" width="24" height="29" version="1.1" viewBox="0 0 24 29"><title>Shape</title><desc>Created with Sketch.</desc><g id="Page-3" fill="none" fill-rule="evenodd" stroke="none" stroke-width="1"><path id="Shape" fill="#000" fill-rule="nonzero" d="M3.67943141,24.4745277 C2.91599156,24.4741216 1.5079909,24.4731604 1.48383183,24.4716562 C1.46495277,24.4704807 1.44616279,24.4689736 1.42746762,24.4671406 C0.626760519,24.388636 -1.13686838e-13,23.7124016 -1.13686838e-13,22.8912516 L-1.13686838e-13,1.87541152 C-1.13686838e-13,0.95555368 0.735886276,0.219667404 1.65574412,0.219667404 L16.5988999,0.219667404 C17.4726956,0.219667404 18.1823982,0.929370024 18.1823982,1.80316574 C18.1823982,1.89583514 18.1600691,1.98292226 18.120455,2.05938309 L20.2368726,2.05938309 C21.1356062,2.05938309 21.8926167,2.81639365 21.8926167,3.71512722 L21.8926167,15.8572508 C21.8926167,16.17788 21.6613313,16.4091655 21.340702,16.4091655 C21.0200727,16.4091655 20.7887873,16.17788 20.7887873,15.8572508 C20.7887873,8.13044487 20.7887873,4.08307035 20.7887873,3.71512722 C20.7887873,3.34718408 20.6048157,3.16321251 20.2368726,3.16321251 C17.4772991,3.16321251 8.83063531,3.16321251 5.3351755,3.16321251 C4.96723236,3.16321251 4.78326079,3.34718408 4.78326079,3.71512722 C4.78326079,7.64209775 4.78326079,14.6330174 4.78326079,24.6878861 C4.78326079,24.9453611 5.07770048,25.2398008 5.3351755,25.2398008 L12.6940383,25.2398008 C13.0195256,25.2398008 13.245953,25.4710862 13.245953,25.7917155 C13.245953,26.1123448 13.0146675,26.3436302 12.6940383,26.3436302 L5.3351755,26.3436302 C4.43644194,26.3436302 3.67943138,25.5866196 3.67943138,24.6878861 L3.67943138,24.4745277 Z M3.67943138,23.3666816 L3.67943138,3.71512722 C3.67943138,2.81639365 4.43158392,2.05938309 5.3351755,2.05938309 L17.1367131,2.05938309 C17.097099,1.98292226 17.0747699,1.89583514 17.0747699,1.80316574 C17.0747699,1.54061679 16.8614489,1.32729577 16.5988999,1.32729577 L1.58349833,1.32729577 C1.32094939,1.32729577 1.10762837,1.54061679 1.10762837,1.80316574 L1.10762837,22.8912516 C1.10762837,23.1281281 1.28127122,23.3249331 1.50804634,23.3611561 C1.52601102,23.3640256 2.92036171,23.3658874 3.67943138,23.3666816 Z M22.9547741,22.0014028 C23.2754034,22.0014028 23.5377365,22.2588778 23.5329448,22.5843651 L23.5329448,27.6367051 C23.5329448,27.9573344 23.2705454,28.2196674 22.9499161,28.2196674 L15.1236471,28.2196674 C14.8030178,28.2196674 14.5406848,27.9573344 14.5406848,27.6367051 L14.5406848,22.5843651 C14.5406848,22.2637358 14.8030178,22.0014028 15.1236471,22.0014028 L15.9786585,22.0014028 L15.9786585,20.6411574 C15.9786585,18.9554247 17.3534779,17.5806052 19.0392106,17.5806052 C20.7249433,17.5806052 22.0997628,18.9554247 22.0997628,20.6411574 L22.0997628,22.0014028 L22.9547741,22.0014028 Z M17.1445831,20.6362993 L17.1445831,21.9965447 L20.9338381,21.9965447 L20.9338381,20.6362993 C20.9338381,19.5918252 20.0836848,18.7416718 19.0392106,18.7416718 C17.9947365,18.7416718 17.1445831,19.5918252 17.1445831,20.6362993 Z M22.3718118,27.0488848 L22.3669538,27.0488848 L22.3669538,23.1624694 L15.7066094,23.1624694 L15.7066094,27.0488848 L22.3718118,27.0488848 Z M7.89657491,8.86633115 C7.59635229,8.86633115 7.35886276,8.61796953 7.35886276,8.31441644 C7.35886276,8.01086335 7.60083323,7.76250173 7.89657491,7.76250173 L17.7519125,7.76250173 C18.0476541,7.76250173 18.2896246,8.01086335 18.2896246,8.31441644 C18.2896246,8.61796953 18.0476541,8.86633115 17.7519125,8.86633115 L7.89657491,8.86633115 Z M7.89657491,15.1213645 C7.59635229,15.1213645 7.35886276,14.8730029 7.35886276,14.5694498 C7.35886276,14.2658967 7.60083323,14.0175351 7.89657491,14.0175351 L17.7519125,14.0175351 C18.0476541,14.0175351 18.2896246,14.2658967 18.2896246,14.5694498 C18.2896246,14.8730029 18.0476541,15.1213645 17.7519125,15.1213645 L7.89657491,15.1213645 Z M7.89657491,11.9938478 C7.59635229,11.9938478 7.35886276,11.7454862 7.35886276,11.4419331 C7.35886276,11.13838 7.60083323,10.8900184 7.89657491,10.8900184 L17.7519125,10.8900184 C18.0476541,10.8900184 18.2896246,11.13838 18.2896246,11.4419331 C18.2896246,11.7454862 18.0476541,11.9938478 17.7519125,11.9938478 L7.89657491,11.9938478 Z M7.85190475,18.2488812 C7.57662297,18.2488812 7.35886276,18.0005196 7.35886276,17.6969665 C7.35886276,17.3934134 7.58073166,17.1450518 7.85190475,17.1450518 L11.9094924,17.1450518 C12.1806655,17.1450518 12.4025344,17.3934134 12.4025344,17.6969665 C12.4025344,18.0005196 12.1806655,18.2488812 11.9094924,18.2488812 L7.85190475,18.2488812 Z"/></g></svg>