<svg xmlns="http://www.w3.org/2000/svg" xmlns:xlink="http://www.w3.org/1999/xlink" width="28" height="28" version="1.1" viewBox="0 0 28 28"><title>Shape</title><desc>Created with Sketch.</desc><g id="Page-3" fill="none" fill-rule="evenodd" stroke="none" stroke-width="1"><path id="Shape" fill="#000" fill-rule="nonzero" d="M14.7,14.7 L14.7,19.4838894 C14.7,19.924417 14.387662,20.2797101 14.0003944,20.2797101 C13.6139155,20.2797101 13.3,19.9235198 13.3,19.4838894 L13.3,14.7 L8.49671797,14.7 C8.05708756,14.7 7.7,14.387662 7.7,14.0003944 C7.7,13.6139155 8.05619035,13.3 8.49671797,13.3 L13.3,13.3 L13.3,8.49671797 C13.3,8.05708756 13.6139155,7.7 14.0003944,7.7 C14.3868732,7.7 14.7,8.05708756 14.7,8.49671797 L14.7,13.3 L19.4838894,13.3 C19.9235198,13.3 20.2797101,13.6139155 20.2797101,14.0003944 C20.2797101,14.387662 19.924417,14.7 19.4838894,14.7 L14.7,14.7 Z M14,28 C6.28012106,28 0,21.7191796 0,13.9995492 C0,6.27991886 6.28012106,0 14,0 C21.7198789,0 28,6.27991886 28,13.9995492 C28.0009015,21.7191796 21.7198789,28 14,28 Z M14.000458,1.4 C7.05211385,1.4 1.4,7.05302992 1.4,14.000458 C1.4,20.9478861 7.05211385,26.6 14.000458,26.6 C20.9478861,26.6 26.6,20.9478861 26.6,14.000458 C26.6,7.05302992 20.9478861,1.4 14.000458,1.4 Z"/></g></svg>