<svg xmlns="http://www.w3.org/2000/svg" xmlns:xlink="http://www.w3.org/1999/xlink" width="28" height="29" version="1.1" viewBox="0 0 28 29"><title>settings</title><desc>Created with Sketch.</desc><g id="Page-3" fill="none" fill-rule="evenodd" stroke="none" stroke-width="1"><path id="settings" fill="#000" fill-rule="nonzero" d="M26.7518101,11.5157207 C26.2252231,11.4368612 25.6846361,11.3612282 25.1451429,11.2909 C25.0797912,11.2824234 25.0267442,11.2380717 25.0102285,11.1780247 C24.7612359,10.2744214 24.3999148,9.40248221 23.9363827,8.58643375 C23.9052108,8.53163676 23.9110623,8.46251163 23.9513124,8.41017559 C24.2831021,7.97896381 24.6119934,7.54304889 24.9289081,7.11462618 C25.3567839,6.53614068 25.2946588,5.7152797 24.7845328,5.20509902 L23.0145137,3.43507993 C22.504333,2.92495394 21.6835267,2.86282882 21.1049318,3.29081403 C20.6774388,3.60701777 20.2415786,3.93590904 19.8094371,4.268355 C19.7572652,4.30860508 19.687976,4.31445665 19.633179,4.2833394 C18.8171852,3.81980725 17.945246,3.45848623 17.041588,3.20943887 C16.9814863,3.1929779 16.9371346,3.13993092 16.9286034,3.07441517 C16.8581111,2.53410161 16.7825328,1.99356931 16.703892,1.46791203 C16.5974152,0.756262202 15.9731015,0.219667404 15.2516079,0.219667404 L12.7483921,0.219667404 C12.0268438,0.219667404 11.4025301,0.756262202 11.2962174,1.46785734 C11.2175219,1.99362399 11.1419436,2.53410161 11.0714513,3.07452454 C11.0628654,3.13998561 11.0185684,3.19292321 10.958412,3.20943887 C10.054754,3.4585956 9.18276012,3.81986194 8.3669304,4.2833394 C8.31207873,4.31445665 8.24284422,4.30844101 8.19056287,4.268355 C7.75847609,3.93590904 7.32256118,3.60701777 6.89501347,3.29075934 C6.3163639,2.86282882 5.49555761,2.92506331 4.9854863,3.43513462 L3.21546722,5.2051537 C2.70528653,5.71538907 2.6432161,6.53630474 3.07120131,7.11473556 C3.38860818,7.54381452 3.71749945,7.97962006 4.04874228,8.41017559 C4.08893767,8.46240225 4.09484394,8.53158208 4.06372669,8.58643375 C3.60008516,9.40264628 3.23881883,10.2745855 2.98982615,11.1780247 C2.97336518,11.238017 2.9203182,11.2823687 2.85491183,11.2909547 C2.31569202,11.3613376 1.77515972,11.4369159 1.24829931,11.5157754 C0.536594798,11.6221428 1.13686838e-13,12.2465659 1.13686838e-13,12.9680048 L1.13686838e-13,15.4712753 C1.13686838e-13,16.1927689 0.536594798,16.8171373 1.24818994,16.9235594 C1.77505034,17.0024189 2.31563734,17.0779972 2.85485714,17.1483255 C2.9203182,17.1569114 2.97325581,17.2012084 2.98977146,17.2613101 C3.23876414,18.164804 3.60008516,19.0367432 4.063672,19.8529011 C4.09478925,19.9077527 4.08888299,19.9769326 4.0486876,20.0291592 C3.71662445,20.4607538 3.38773318,20.896614 3.07114662,21.3246539 C2.6432161,21.9031394 2.70523185,22.7240551 3.21541253,23.2342358 L4.98543161,25.0042549 C5.49566698,25.5144356 6.31658265,25.5765607 6.89501347,25.1485208 C7.32250649,24.832317 7.75836672,24.5034258 8.19050818,24.1709798 C8.24273485,24.1307297 8.31196936,24.1249328 8.36676634,24.1559954 C9.18270543,24.6195276 10.05459,24.9807392 10.9583573,25.2298959 C11.018459,25.2464116 11.0628107,25.2994039 11.0713419,25.3648103 C11.1418343,25.9051238 11.2174672,26.4457108 11.296108,26.9713134 C11.4025301,27.6829632 12.0268438,28.219558 12.7483921,28.219558 L15.2516079,28.219558 C15.9731015,28.219558 16.5974699,27.6829632 16.7038373,26.971204 C16.7825328,26.4449452 16.8581111,25.9044129 16.9285487,25.3647009 C16.9371346,25.2992398 16.9814316,25.2462475 17.0415333,25.2296772 C17.9451913,24.9805205 18.8171852,24.6192541 19.6330696,24.1557767 C19.6879213,24.1247688 19.7571011,24.130675 19.8093824,24.1707611 C20.2414692,24.503207 20.6773841,24.8320983 21.1048772,25.148302 C21.6833627,25.5762326 22.5042236,25.5142168 23.014459,25.0040361 L24.7844781,23.234017 C25.2946041,22.7238364 25.3567292,21.9029754 24.9287987,21.3244352 C24.611884,20.8961765 24.2829381,20.4602616 23.951203,20.0289405 C23.9110076,19.9767138 23.9051014,19.907534 23.9362733,19.8526823 C24.3998602,19.0365245 24.7611265,18.1645853 25.0101192,17.261146 C25.0267442,17.2009896 25.0796818,17.1566927 25.1451429,17.1481067 C25.6845267,17.0777785 26.2251137,17.0021455 26.7517554,16.9233407 C27.4634052,16.8169733 28,16.1926049 28,15.4711113 L28,12.9678407 C28,12.2465112 27.4634052,11.6220881 26.7518101,11.5157207 Z M26.6926928,15.4713847 C26.6926928,15.5506817 26.634888,15.6190412 26.55838,15.6305803 C26.0398321,15.708182 25.5075029,15.7825572 24.9761582,15.8519557 C24.3878289,15.9286278 23.9064686,16.3454567 23.7497339,16.9139891 C23.5293975,17.7134125 23.2096938,18.485 22.7995367,19.2071498 C22.5078877,19.7206117 22.5532237,20.3562458 22.9150369,20.8265592 C23.2418501,21.2513725 23.5657648,21.6806156 23.8777576,22.1023664 C23.9238045,22.1645462 23.9161483,22.2537964 23.8600935,22.3098512 L22.0900197,24.0798703 C22.0339102,24.1359797 21.9447147,24.1434719 21.8825896,24.097589 C21.4616591,23.7861431 21.0323067,23.4622284 20.6067277,23.1348137 C20.136469,22.7729458 19.5008897,22.7276098 18.9874824,23.0192041 C18.2653325,23.4293612 17.4937451,23.7491196 16.6942123,23.9695107 C16.1257893,24.1261907 15.7089604,24.607551 15.6321243,25.1959349 C15.5628351,25.7276078 15.4883506,26.259937 15.4108035,26.7781568 C15.3993738,26.8546647 15.3309049,26.9123055 15.2516079,26.9123055 L12.7483921,26.9123055 C12.6690951,26.9123055 12.6006262,26.8546647 12.5891965,26.7781021 C12.5118135,26.2604839 12.4372743,25.7281547 12.3678757,25.1959896 C12.291149,24.6076057 11.8742107,24.1262453 11.3057877,23.9695654 C10.5062002,23.7491743 9.73461276,23.4294159 9.0125176,23.0192041 C8.78736873,22.8913992 8.53870418,22.8282897 8.29085994,22.8282897 C7.97345307,22.8282897 7.65730402,22.9316493 7.39332694,23.1349231 C6.9676933,23.4623378 6.53839558,23.7862525 6.11746507,24.0976984 C6.05523058,24.1435813 5.96614447,24.1360891 5.91008967,24.0799796 L4.1400159,22.3099605 C4.08390641,22.2538511 4.07625015,22.1647103 4.12229711,22.1025305 C4.43407116,21.6810531 4.75793117,21.25181 5.08501774,20.8266686 C5.44677626,20.3563552 5.49216698,19.7208305 5.20062734,19.2074232 C4.79030623,18.4850546 4.47065717,17.7135219 4.2503208,16.9141531 C4.09364081,16.3457301 3.61228049,15.9288465 3.02395122,15.8521198 C2.49282518,15.7828306 1.96044133,15.7082914 1.44162,15.6307444 C1.36511204,15.61926 1.3074713,15.5508458 1.3074713,15.4715488 L1.3074713,12.9682782 C1.3074713,12.8889812 1.36511204,12.820567 1.44162,12.8090826 C1.96044133,12.7314809 2.49277049,12.6569964 3.02384184,12.5877072 C3.61222581,12.5110352 4.09358612,12.0941515 4.25026611,11.5256739 C4.47049311,10.7263598 4.79025154,9.95477236 5.20057266,9.23240376 C5.49216698,8.71894182 5.44677626,8.08336245 5.08501774,7.61315841 C4.75880617,7.18900133 4.43489147,6.75981299 4.12229711,6.33729654 C4.07635952,6.27511673 4.0839611,6.18586656 4.1400159,6.12986645 L5.90998029,4.35979268 C5.9659804,4.30368319 6.05517589,4.29619099 6.1173557,4.34207389 C6.53828621,4.65346513 6.96758392,4.97737982 7.39321756,5.30484921 C7.86353098,5.66655304 8.49905566,5.71199844 9.01257229,5.42034944 C9.73461276,5.01019239 10.5062002,4.69043395 11.305733,4.47004289 C11.8742107,4.3133629 12.291149,3.83200258 12.3678757,3.24361862 C12.437329,2.71145352 12.5117588,2.17912436 12.5892512,1.66134209 C12.6006809,1.58494351 12.6691497,1.52724808 12.7484468,1.52724808 L15.2516626,1.52724808 C15.3309596,1.52724808 15.3994285,1.58488882 15.4108582,1.66139678 C15.4883506,2.17901498 15.5627804,2.71128946 15.6322337,3.24361862 C15.7089604,3.83200258 16.1258987,4.3133629 16.6943217,4.47004289 C17.4938545,4.69043395 18.2653872,5.01019239 18.9875918,5.42034944 C19.500999,5.71183438 20.1365784,5.66655304 20.6067824,5.30473984 C21.0324161,4.97732513 21.4617138,4.65341044 21.8825896,4.34201921 C21.9447694,4.29597224 22.0340196,4.30357382 22.0900744,4.35973799 L23.8600935,6.12975707 C23.916203,6.18586656 23.9237499,6.27506204 23.8778123,6.33718716 C23.5658195,6.75904736 23.2419048,7.1882357 22.9150916,7.61304903 C22.5533331,8.08341714 22.5079424,8.7189965 22.7995914,9.23245844 C23.2098031,9.95460829 23.5295069,10.726141 23.7498979,11.5256739 C23.9065779,12.0940968 24.3880476,12.5109258 24.9762128,12.5875978 C25.5075576,12.6569417 26.0399415,12.7314262 26.5585441,12.8089732 C26.635052,12.8204576 26.6926928,12.8888718 26.6926928,12.9681689 L26.6926928,15.4713847 Z M14.0000273,8.14204225 C10.6487708,8.14204225 7.92237485,10.8684382 7.92237485,14.2196947 C7.92237485,17.5709513 10.6487708,20.2973472 14.0000273,20.2973472 C17.3512839,20.2973472 20.0776798,17.5709513 20.0776798,14.2196947 C20.0776798,10.8684382 17.3512839,8.14204225 14.0000273,8.14204225 Z M14.0000273,18.9898213 C11.3697175,18.9898213 9.22990084,16.8499499 9.22990084,14.2196947 C9.22990084,11.5893849 11.3698269,9.44956824 14.0000273,9.44956824 C16.6302825,9.44956824 18.7701538,11.5894396 18.7701538,14.2196947 C18.7701538,16.8499499 16.6303372,18.9898213 14.0000273,18.9898213 Z"/></g></svg>