<svg xmlns="http://www.w3.org/2000/svg" id="Capa_1" width="16" height="16" enable-background="new 0 0 475.293 475.293" viewBox="0 0 475.293 475.293"><path d="m103.97 148.529c-24.571 0-44.559-19.988-44.559-44.559s19.988-44.559 44.559-44.559 44.559 19.988 44.559 44.559-19.987 44.559-44.559 44.559zm0-59.411c-8.195 0-14.853 6.658-14.853 14.853s6.658 14.853 14.853 14.853 14.853-6.658 14.853-14.853-6.657-14.853-14.853-14.853z"/><path d="m252.5 475.293c-3.8 0-7.601-1.45-10.501-4.351l-237.648-237.647c-2.784-2.785-4.351-6.556-4.351-10.501v-207.941c0-8.21 6.643-14.853 14.853-14.853h207.941c3.945 0 7.717 1.567 10.501 4.351l237.647 237.647c5.802 5.802 5.802 15.201 0 21.003l-207.941 207.941c-2.901 2.901-6.701 4.351-10.501 4.351zm-222.794-258.649 222.794 222.793 186.937-186.937-222.793-222.794h-186.938z"/></svg>