<?xml version="1.0" encoding="utf-8"?>
<!-- Svg Vector Icons : http://www.onlinewebfonts.com/icon -->
<!DOCTYPE svg PUBLIC "-//W3C//DTD SVG 1.1//EN" "http://www.w3.org/Graphics/SVG/1.1/DTD/svg11.dtd">
<svg version="1.1" xmlns="http://www.w3.org/2000/svg" xmlns:xlink="http://www.w3.org/1999/xlink" x="0px" y="0px" viewBox="0 0 1000 1000" enable-background="new 0 0 1000 1000" xml:space="preserve">
<metadata> Svg Vector Icons : http://www.onlinewebfonts.com/icon </metadata>
<g><g transform="translate(0.000000,511.000000) scale(0.100000,-0.100000)"><path d="M4565.2,4994.7c-403.4-35.6-731.7-106.8-1160.8-249.2c-526-176-1283.4-597.2-1346.7-749.5c-57.3-134.5,41.5-284.8,185.9-284.8c53.4,0,116.7,31.6,268.9,132.5c913.6,609.1,2064.6,868.1,3150.2,706c1166.7-172,2210.9-789,2910.9-1720.5c569.5-759.4,911.6-1764,911.6-2685.5c0-213.6,33.6-290.7,144.4-326.3c87-29.7,191.8,7.9,243.2,87c29.7,45.5,31.7,91,21.8,391.6c-13.8,379.7-47.5,624.9-134.5,969c-172.1,674.3-452.9,1259.7-866.2,1803.5c-290.7,385.6-818.7,872.1-1237.9,1141C6734.6,4806.8,5621.2,5087.6,4565.2,4994.7z"/><path d="M4434.7,3798.3c-1190.5-183.9-2220.8-939.3-2770.5-2030.9C1504,1449,1379.4,1097,1363.6,919c-9.9-104.8-7.9-116.7,49.4-172c47.5-47.5,77.1-61.3,140.4-61.3c126.6,0,185.9,69.2,249.2,296.6c166.1,593.3,433.1,1054,850.3,1473.3c433.1,431.1,925.5,709.9,1522.7,860.2c328.3,83.1,559.6,106.8,927.5,92.9c174-7.9,359.9-17.8,411.3-25.7c89-11.9,96.9-9.9,164.1,57.3c75.1,75.2,89,146.3,45.5,241.3c-31.6,71.2-108.8,106.8-278.8,128.5C5237.6,3837.8,4638.3,3829.9,4434.7,3798.3z"/><path d="M1604.8,3634.1c-61.3-25.7-344.1-332.2-502.3-543.8C604.2,2427.9,293.7,1698.1,147.4,851.7C88,503.7,84.1-249.7,137.5-609.7c55.4-357.9,100.8-504.3,174-571.5c53.4-47.5,75.1-53.4,144.4-45.5c91,11.9,189.9,102.8,189.9,174c0,23.7-21.8,150.3-47.5,282.8C311.5,652,718.9,2105.5,1697.8,3147.7c168.1,180,193.8,219.5,193.8,304.5C1891.6,3578.8,1721.5,3685.6,1604.8,3634.1z"/><path d="M6212.5,3598.5c-130.5-33.6-193.8-162.2-140.4-288.7c23.7-59.3,51.4-83.1,124.6-114.7c482.5-203.7,800.9-413.3,1145-757.4c502.3-504.3,765.3-1010.5,915.6-1762c225.4-1129.2,207.6-2371.1-49.4-3480.5c-96.9-425.2-96.9-415.3-67.2-482.5c67.2-164.1,312.5-156.2,381.7,11.9c69.2,176,203.7,887.9,265,1400.1c47.5,413.3,47.5,1435.7,0,1864.8c-45.5,393.5-120.6,834.5-183.9,1071.8c-276.9,1024.4-994.7,1904.4-1945.9,2382.9c-130.5,65.3-387.6,172.1-401.4,166.1C6254,3608.4,6234.2,3602.5,6212.5,3598.5z"/><path d="M4689.8,2651.3c-599.2-91-1050.1-312.4-1461.4-715.9c-354-346.1-589.3-753.4-717.8-1247.8c-77.1-292.7-87-741.6-23.7-1083.7c65.3-350,65.3-812.8,0-1113.3c-114.7-537.9-375.7-996.7-804.9-1413.9c-114.7-112.7-209.6-219.5-215.5-249.2c-19.8-81.1,35.6-189.9,116.7-229.4c116.7-53.4,191.8-17.8,413.3,201.7c488.5,484.5,789,1060,919.6,1760c45.5,253.1,43.5,804.9-4,1058c-150.3,781.1,17.8,1429.8,506.3,1947.9c443,468.7,1028.3,704,1686.8,676.3c535.9-21.8,978.9-205.7,1356.6-561.6c520.1-492.4,735.7-1164.8,761.4-2388.9c5.9-261,19.8-502.3,29.7-537.9c25.7-79.1,102.8-130.5,203.7-130.5c112.7,0,180,79.1,199.7,233.3c29.7,249.2-31.6,1071.8-118.7,1564.2c-106.8,613-302.6,1020.4-678.3,1415.9c-369.8,387.6-828.6,650.6-1348.7,769.3C5346.3,2643.4,4830.2,2673.1,4689.8,2651.3z"/><path d="M4774.8,1476.7C4138,1362,3657.5,814.2,3617.9,161.6c-21.7-354,53.4-524.1,231.4-524.1c59.3,0,94.9,13.8,142.4,57.3c71.2,63.3,71.2,73.2,45.5,379.7c-25.7,282.8,63.3,524,267,717.8c381.7,363.9,986.8,377.7,1352.6,31.6c201.7-189.8,278.8-401.4,361.9-988.8c49.4-352,49.4-1257.7,0-1591.9c-140.4-943.3-443-1767.9-929.4-2533.2c-93-146.3-152.3-261-152.3-294.7c0-118.7,89-205.7,211.6-207.6c104.8,0,152.3,45.5,320.4,318.4c506.2,816.7,826.6,1720.5,961.1,2707.3c45.5,324.3,59.3,1020.4,31.6,1366.5c-29.7,348-104.8,798.9-158.2,953.2c-146.3,421.2-535.9,769.3-1000.6,895.8C5174.3,1484.6,4893.5,1498.4,4774.8,1476.7z"/><path d="M1383.3,341.5c-110.7-49.4-132.5-122.6-116.7-401.5c5.9-134.5,31.7-348,53.4-474.6c81.1-460.8,45.5-791-122.6-1113.3c-77.1-150.3-314.4-454.8-354-454.8c-33.6,0-98.9-126.6-98.9-191.8c0-130.5,154.2-233.3,280.8-185.9c69.2,25.7,268.9,229.4,383.6,387.6c116.7,166.1,253.1,456.8,302.6,652.6c85.1,328.3,89,597.2,13.8,1018.4c-15.8,92.9-35.6,278.8-43.5,413.3c-11.9,227.4-17.8,249.2-65.3,302.6C1555.4,361.3,1468.4,379.1,1383.3,341.5z"/><path d="M4861.8,260.5c-79.1-65.3-85-114.7-41.5-361.9c243.3-1441.6-146.3-2909-1071.8-4044.1c-174-211.6-201.7-282.8-148.3-385.6c39.6-79.1,87-102.8,191.8-102.8c75.1,0,94.9,9.9,168.1,91c213.6,229.4,508.2,660.5,709.9,1040.2c302.6,571.5,520.1,1279.4,605.1,1963.7c53.4,433.1,23.7,1230-63.3,1635.4C5168.3,296.1,4998.3,375.2,4861.8,260.5z"/><path d="M3784.1-750.1c-61.3-61.3-67.2-94.9-81.1-423.2C3663.4-2086.9,3279.8-2959,2605.4-3665c-197.8-207.6-225.4-268.9-172.1-373.8c43.5-83,134.5-128.5,227.4-110.7c55.4,9.9,108.8,51.4,245.2,193.8c737.6,765.3,1178.6,1789.7,1214.2,2816l11.9,320.3l-61.3,59.3C3989.7-676.9,3861.2-672.9,3784.1-750.1z"/><path d="M7252.7-1760.6c-55.4-51.4-63.3-77.1-110.7-365.8c-110.7-672.4-290.7-1267.6-571.5-1890.5c-106.8-239.3-114.7-312.5-35.6-401.4c43.5-49.4,73.2-63.3,134.5-65.3c130.5-2,168.1,39.6,288.7,308.5c296.6,658.5,516.1,1398.1,615,2082.3c25.7,164.1,25.7,207.6,4,259.1C7521.6-1699.3,7357.5-1663.7,7252.7-1760.6z"/></g></g>
</svg>