<svg xmlns="http://www.w3.org/2000/svg" xmlns:xlink="http://www.w3.org/1999/xlink" id="Capa_1" x="0" y="0" version="1.1" viewBox="0 0 512.192 512.192" xml:space="preserve" style="enable-background:new 0 0 512.192 512.192"><path style="fill:#37474f" d="M404.073,282.448c-9.307-14.746-16.03-30.972-19.883-47.979V117.136	c-0.972-54.189-45.689-97.329-99.878-96.357c-2.266,0.041-4.531,0.16-6.789,0.357c-68.843,0-110.592,30.485-127.616,93.205	c-1.546,5.684,1.808,11.546,7.493,13.093c0.182,0.05,0.366,0.094,0.55,0.134c21.647,4.77,43.53,8.401,65.557,10.88	c4.871,0.315,9.334-2.716,10.837-7.36c6.272-19.371,11.029-24.619,32.512-24.619c24.917,0,30.955,12.8,31.872,43.157	c-117.824,6.507-170.539,39.445-170.539,106.176c0,48.064,51.605,85.333,96,85.333c30.607,2.673,60.999-7.101,84.309-27.115	c11.591,10.878,24.915,19.746,39.424,26.24c1.348,0.578,2.8,0.875,4.267,0.875c2.831,0.005,5.548-1.115,7.552-3.115l42.667-42.667	C405.828,291.928,406.511,286.629,404.073,282.448z M295.678,279.461c-10.125,11.316-24.327,18.152-39.488,19.008	c-9.728,0-41.515-3.84-42.667-53.077c-0.106-10.141,3.968-19.879,11.264-26.923c24.211-18.614,54.228-28.06,84.736-26.667	c5.712-0.006,10.415,4.49,10.667,10.197C323.256,230.116,314.361,258.227,295.678,279.461L295.678,279.461z"/><g><path style="fill:#ffc107" d="M504.233,362.832c-3.008-0.768-73.835-18.987-106.261,13.44c-4.093,4.237-3.976,10.99,0.261,15.083 c4.134,3.993,10.688,3.993,14.821,0c17.067-17.067,56.043-13.824,77.333-9.771c-1.835,23.637-9.003,60.928-24.683,66.944 c-5.532,2.026-8.373,8.153-6.347,13.685c2.026,5.532,8.153,8.373,13.685,6.347c0.093-0.034,0.186-0.07,0.278-0.106 c35.883-13.739,38.677-86.763,38.869-95.125C512.272,368.414,508.987,364.08,504.233,362.832z"/><path style="fill:#ffc107" d="M469.523,415.803c0-11.782-9.551-21.333-21.333-21.333c-4.346,0.015-8.577,1.396-12.096,3.947 c-143.637,57.109-269.504,46.72-420.181-34.667c-5.129-2.897-11.636-1.088-14.533,4.042c-2.418,4.281-1.596,9.661,1.989,13.025 c74.816,73.707,157.717,110.613,247.872,110.613c70.065-1.803,138.662-20.471,199.979-54.421 C461.757,435.496,469.567,426.448,469.523,415.803z"/></g></svg>