<svg xmlns="http://www.w3.org/2000/svg" xmlns:xlink="http://www.w3.org/1999/xlink" id="Capa_1" x="0" y="0" version="1.1" viewBox="0 0 511.958 511.958" xml:space="preserve" style="enable-background:new 0 0 511.958 511.958"><g><g><g><path d="M210.624,240.619c10.624-5.344,18.656-11.296,24.16-17.728c9.792-11.584,14.624-26.944,14.624-45.984 c0-18.528-4.832-34.368-14.496-47.648c-16.128-21.632-43.424-32.704-82.016-33.28H0v312.096h142.56 c16.064,0,30.944-1.376,44.704-4.192c13.76-2.848,25.664-8.064,35.744-15.68c8.96-6.624,16.448-14.848,22.4-24.544 c9.408-14.656,14.112-31.264,14.112-49.76c0-17.92-4.128-33.184-12.32-45.728C238.912,255.627,226.752,246.443,210.624,240.619z M63.072,150.187h68.864c15.136,0,27.616,1.632,37.408,4.864c11.328,4.704,16.992,14.272,16.992,28.864 c0,13.088-4.32,22.24-12.864,27.392c-8.608,5.152-19.776,7.744-33.472,7.744H63.072V150.187z M171.968,348.427 c-7.616,3.68-18.336,5.504-32.064,5.504H63.072v-83.232h77.888c13.568,0.096,24.128,1.888,31.68,5.248 c13.44,6.08,20.128,17.216,20.128,33.504C192.768,328.651,185.856,341.579,171.968,348.427z"/><rect width="135.584" height="38.848" x="327.168" y="110.539"/><path d="M509.856,263.851c-2.816-18.08-9.024-33.984-18.688-47.712c-10.592-15.552-24.032-26.944-40.384-34.144 c-16.288-7.232-34.624-10.848-55.04-10.816c-34.272,0-62.112,10.72-83.648,32c-21.472,21.344-32.224,52.032-32.224,92.032 c0,42.656,11.872,73.472,35.744,92.384c23.776,18.944,51.232,28.384,82.4,28.384c37.728,0,67.072-11.232,88.032-33.632 c13.408-14.144,20.992-28.064,22.656-41.728H446.24c-3.616,6.752-7.808,12.032-12.608,15.872 c-8.704,7.04-20.032,10.56-33.92,10.56c-13.216,0-24.416-2.912-33.76-8.704c-15.424-9.28-23.488-25.536-24.512-48.672h170.464 C512.16,289.739,511.52,274.411,509.856,263.851z M342.976,269.835c2.24-15.008,7.68-26.912,16.32-35.712 c8.64-8.768,20.864-13.184,36.512-13.216c14.432,0,26.496,4.128,36.32,12.416c9.696,8.352,15.168,20.48,16.288,36.512H342.976z"/></g></g></g></svg>