<svg height="368pt" viewBox="0 0 368 368" width="368pt" xmlns="http://www.w3.org/2000/svg"><path d="m347.816406 100.367188c-30.511718-59.511719-92.464844-100.367188-163.816406-100.367188-71.375 0-133.335938 40.871094-163.839844 100.425781-.121094.238281-.265625.453125-.359375.703125-12.632812 24.925782-19.800781 53.070313-19.800781 82.871094 0 29.808594 7.167969 57.953125 19.800781 82.871094.09375.25.238281.464844.359375.703125 30.496094 59.554687 92.464844 100.425781 163.839844 100.425781 71.351562 0 133.304688-40.847656 163.816406-100.367188.136719-.265624.296875-.503906.398438-.785156 12.625-24.917968 19.785156-53.054687 19.785156-82.847656s-7.160156-57.929688-19.785156-82.847656c-.109375-.28125-.261719-.519532-.398438-.785156zm-12.257812 155.632812h-70.320313c3.90625-19.710938 6.226563-41.265625 6.664063-64h79.691406c-1.082031 22.824219-6.699219 44.433594-16.035156 64zm-151.558594 96c-25.304688 0-48-32.441406-60.871094-80h121.742188c-12.871094 47.558594-35.566406 80-60.871094 80zm-64.695312-96c-4.136719-19.671875-6.640626-41.304688-7.121094-64h143.640625c-.488281 22.695312-2.992188 44.328125-7.121094 64zm-102.898438-64h79.691406c.445313 22.734375 2.757813 44.289062 6.664063 64h-70.320313c-9.335937-19.566406-14.953125-41.175781-16.035156-64zm16.035156-80h70.320313c-3.90625 19.710938-6.226563 41.265625-6.664063 64h-79.691406c1.082031-22.824219 6.699219-44.433594 16.035156-64zm151.558594-96c25.304688 0 48 32.441406 60.871094 80h-121.742188c12.871094-47.558594 35.566406-80 60.871094-80zm64.695312 96c4.136719 19.664062 6.640626 41.304688 7.121094 64h-143.640625c.488281-22.695312 2.992188-44.335938 7.121094-64zm23.207032 64c-.445313-22.734375-2.757813-44.289062-6.664063-64h70.320313c9.335937 19.566406 14.953125 41.175781 16.035156 64zm54.929687-80h-65.214843c-8.097657-31.742188-20.511719-57.632812-35.722657-74.496094 42.488281 10.96875 78.425781 38.089844 100.9375 74.496094zm-184.734375-74.496094c-15.203125 16.863282-27.617187 42.753906-35.722656 74.496094h-65.214844c22.519532-36.40625 58.457032-63.527344 100.9375-74.496094zm-100.929687 250.496094h65.207031c8.097656 31.742188 20.511719 57.632812 35.722656 74.496094-42.480468-10.96875-78.417968-38.097656-100.929687-74.496094zm184.734375 74.496094c15.203125-16.863282 27.617187-42.753906 35.722656-74.496094h65.207031c-22.511719 36.398438-58.449219 63.527344-100.929687 74.496094zm0 0"/></svg>