<svg xmlns="http://www.w3.org/2000/svg" xmlns:xlink="http://www.w3.org/1999/xlink" id="Capa_1" x="0" y="0" version="1.1" viewBox="0 0 512 512" xml:space="preserve" style="enable-background:new 0 0 512 512"><g><g><path d="M256,0C114.848,0,0,114.848,0,256s114.848,256,256,256s256-114.848,256-256S397.152,0,256,0z M256,480 C132.48,480,32,379.488,32,256C32,132.48,132.48,32,256,32c123.488,0,224,100.48,224,224C480,379.488,379.488,480,256,480z"/></g></g><g><g><path d="M256,64c-13.44,0-26.56,1.408-39.232,4.032c23.296,33.024,44.448,67.392,63.072,103.008 c35.232-16.416,68.384-37.6,98.656-62.88C345.248,80.576,302.56,64,256,64z"/></g></g><g><g><path d="M401.312,130.752c-32.928,27.744-69.152,50.752-107.616,68.736c8.416,17.536,16.224,35.296,23.456,53.344 c42.496-8.736,86.72-9.536,130.56-2.272C446.432,204.8,429.216,163.072,401.312,130.752z"/></g></g><g><g><path d="M184.64,77.856c-57.632,23.104-101.344,73.28-115.552,134.88c62.144,2.656,123.648-7.712,180.896-29.568 C230.752,146.656,208.96,111.456,184.64,77.856z"/></g></g><g><g><path d="M264.32,212.128c-55.424,21.6-114.624,33.376-174.816,33.376c-8.288,0-16.608-0.512-24.928-0.96 C64.352,248.352,64,252.128,64,256c0,47.136,17.056,90.272,45.248,123.68c46.112-57.248,108.096-98.272,176.704-118.88 C279.264,244.352,272.032,228.16,264.32,212.128z"/></g></g><g><g><path d="M328.896,283.136c15.264,42.56,27.232,86.304,36,130.912c43.264-29.856,73.472-76.992,81.056-131.456 C406.72,275.648,367.072,275.968,328.896,283.136z"/></g></g><g><g><path d="M297.472,290.56c-64.512,18.848-122.784,57.568-165.504,111.872C165.44,430.816,208.672,448,256,448 c28.416,0,55.328-6.336,79.584-17.44C326.784,382.752,313.984,335.968,297.472,290.56z"/></g></g></svg>