<svg xmlns="http://www.w3.org/2000/svg" xmlns:xlink="http://www.w3.org/1999/xlink" id="Capa_1" x="0" y="0" version="1.1" viewBox="0 0 512 512" xml:space="preserve" style="enable-background:new 0 0 512 512"><g><g><polygon points="361.376 0 256 88.672 407.872 183.168 512 99.136"/></g></g><g><g><polygon points="150.624 0 0 99.104 104.16 183.168 256 88.672"/></g></g><g><g><g><polygon points="0 267.232 150.624 366.368 256 277.696 104.128 183.168"/><polygon points="407.84 183.168 256 277.696 361.376 366.368 512 267.232"/></g></g></g><g><g><path d="M368.992,399.648c-2.656,1.76-5.728,2.624-8.768,2.624c-3.68,0-7.328-1.28-10.304-3.744L256,319.488l-93.92,79.04 c-5.408,4.544-13.184,4.992-19.104,1.12L96,368.736V416l160.32,96L416,416v-47.296L368.992,399.648z"/></g></g></svg>