<svg xmlns="http://www.w3.org/2000/svg" xmlns:xlink="http://www.w3.org/1999/xlink" width="19" height="18" version="1.1" viewBox="0 0 19 18"><title>payoneer</title><desc>Created with Sketch.</desc><g id="Page-1" fill="none" fill-rule="evenodd" stroke="none" stroke-width="1"><g id="payoneer" fill="#000" fill-rule="nonzero"><path id="Path" d="M18.404,1.752 C17.597,0.366 15.746,0.721 15.746,0.721 C15.599,0.754 15.449,0.79 15.3,0.818 C14.4,0.986 13.552,1.295 12.74,1.707 C10.975,2.601 9.395,3.756 7.975,5.122 C7.031,6.03 6.114,6.97 5.23,7.939 C3.678,9.642 2.349,11.512 1.287,13.563 C0.74,14.618 0.252,15.704 0.027,16.885 C-0.015,17.102 0.055,17.352 0.125,17.572 C0.155,17.658 0.315,17.725 0.427,17.76 C0.457,17.768 0.548,17.624 0.588,17.539 C0.847,16.977 1.051,16.383 1.368,15.858 C2.001,14.805 2.663,13.766 3.372,12.764 C4.509,11.153 5.812,9.677 7.206,8.281 C8.523,6.961 9.871,5.675 11.533,4.785 C12.296,4.376 13.07,3.979 13.871,3.651 C15.248,3.083 16.683,2.698 18.162,2.478 C18.318,2.456 18.531,2.331 18.582,2.201 C18.625,2.089 18.404,1.752 18.404,1.752 Z"/><path id="Path" d="M3.419,5.601 C3.259,4.241 2.673,3.082 1.741,2.094 C1.633,1.978 1.476,1.893 1.326,1.838 C1.171,1.782 1.069,1.87 1.084,2.047 C1.097,2.202 1.111,2.359 1.138,2.513 C1.327,3.582 1.51,4.653 1.713,5.721 C1.872,6.555 2.046,7.387 2.235,8.215 C2.297,8.483 2.405,8.747 2.533,8.992 C2.63,9.179 2.77,9.164 2.9,8.993 C2.955,8.922 3.015,8.849 3.044,8.767 C3.324,8 3.469,7.208 3.486,6.39 C3.464,6.127 3.45,5.863 3.419,5.601 Z"/></g></g></svg>