<svg xmlns="http://www.w3.org/2000/svg" xmlns:xlink="http://www.w3.org/1999/xlink" id="Capa_1" x="0" y="0" version="1.1" viewBox="0 0 86.001 86.001" xml:space="preserve" style="enable-background:new 0 0 86.001 86.001"><g><path style="fill:#030104" d="M77.276,17.176c1.363,2.564,2.039,5.744,2.039,9.557c0,8.666-3.652,15.652-10.945,20.959 c-7.299,5.312-17.492,7.961-30.59,7.961h-3.066c-2.307,0-4.609,1.812-5.129,4.021l-3.682,15.695 c-0.512,2.219-2.82,4.031-5.123,4.031h-6.705l-0.6,2.564C12.954,84.188,14.415,86,16.718,86h10.746 c2.305,0,4.613-1.812,5.123-4.031l3.684-15.695c0.52-2.209,2.822-4.021,5.129-4.021h3.066c13.098,0,23.291-2.648,30.588-7.961 c7.295-5.308,10.947-12.294,10.947-20.96c0-3.812-0.678-6.992-2.039-9.557c-1.357-2.547-3.33-4.629-5.902-6.217 C77.784,17.393,77.562,17.332,77.276,17.176z M19.218,68.77l3.683-15.696c0.52-2.209,2.82-4.021,5.127-4.021h3.066 c13.1,0,23.293-2.648,30.59-7.961c7.295-5.307,10.945-12.293,10.945-20.959c0-3.812-0.676-6.992-2.039-9.557 c-1.355-2.547-3.33-4.629-5.9-6.215c-2.635-1.611-5.73-2.73-9.314-3.385C51.78,0.326,47.577,0,42.745,0H20.368 c-2.311,0-4.613,1.801-5.137,4.021L0.106,68.768c-0.521,2.221,0.939,4.031,3.242,4.031h10.746 C16.397,72.799,18.706,70.988,19.218,68.77z M27.993,31.201l3.229-13.744c0.523-2.213,2.83-4.023,5.125-4.023h3.518 c4.1,0,7.207,0.688,9.291,2.062c2.082,1.361,3.127,3.455,3.127,6.297c0,4.299-1.625,7.617-4.85,9.945 c-3.229,2.324-7.719,3.5-13.52,3.5h-2.662C28.944,35.238,27.485,33.418,27.993,31.201z"/></g></svg>