<svg xmlns="http://www.w3.org/2000/svg" xmlns:xlink="http://www.w3.org/1999/xlink" id="Capa_1" x="0" y="0" version="1.1" viewBox="0 0 514.24 514.24" xml:space="preserve" style="enable-background:new 0 0 514.24 514.24"><g><g><polygon points="176 289.089 176 289.121 192 289.121"/></g></g><g><g><polygon points="336 289.089 336 289.121 352 289.121"/></g></g><g><g><path d="M514.24,241.121c0-35.296-28.704-64-64-64c-14.112,0-27.52,4.608-38.464,12.96c-35.712-24.8-82.496-39.584-132.256-43.328 l26.848-62.976l78.112,18.24c2.496,24.16,22.72,43.104,47.52,43.104c26.464,0,48-21.536,48-48s-21.536-48-48-48 c-16.768,0-31.52,8.672-40.096,21.76l-91.296-21.344c-7.744-1.76-15.328,2.176-18.4,9.312l-37.12,87.04 c-53.728,1.856-104.928,16.992-143.584,43.36C90.976,181.441,77.92,177.121,64,177.121c-35.296,0-64,28.704-64,64 c0,23.392,12.768,44.544,32.352,55.392c-0.256,2.816-0.352,5.696-0.352,8.608c0,88.224,100.48,160,224,160 c123.488,0,224-71.776,224-160c0-2.496-0.096-4.96-0.256-7.424C500.608,287.073,514.24,265.409,514.24,241.121z M432,81.121 c8.8,0,16,7.168,16,16c0,8.832-7.2,16-16,16s-16-7.168-16-16C416,88.289,423.2,81.121,432,81.121z M144,289.121 c0-17.632,14.368-32,32-32s32,14.368,32,32c0,17.664-14.368,32-32,32S144,306.785,144,289.121z M329.888,395.265 c-22.08,15.968-48,23.968-73.888,23.968s-51.808-8-73.888-23.968c-7.168-5.184-8.768-15.2-3.584-22.336s15.2-8.736,22.336-3.584 c32.992,23.84,77.28,23.904,110.272,0c7.136-5.152,17.12-3.616,22.336,3.584C338.656,380.097,337.024,390.081,329.888,395.265z M336,321.121c-17.664,0-32-14.336-32-32c0-17.632,14.336-32,32-32s32,14.368,32,32C368,306.785,353.664,321.121,336,321.121z"/></g></g></svg>