<svg xmlns="http://www.w3.org/2000/svg" id="Layer_1" width="32" height="32" data-name="Layer 1" viewBox="0 0 512 512"><path fill="#2C91D0" d="m440.89 114.6v172.99c0 41.26-27.59 93.35-61.63 116.56l-123.26 84.06-123.26-84.06c-34.04-23.21-61.63-75.56-61.63-116.56v-173.25l184.89-90.55zm-43.29 141.4a141.6 141.6 0 1 0 -141.6 141.6 141.6 141.6 0 0 0 141.6-141.6z"/><path fill="#e4f5ff" d="m256 114.4a141.6 141.6 0 1 1 -141.6 141.6 141.6 141.6 0 0 1 141.6-141.6z"/><path fill="#ffdf31" d="m338.69 201.78a31.65 31.65 0 0 1 0 44.76l-32.07 32.07a15.825 15.825 0 0 1 -22.38 0l-14.71-14.71-26.98-26.99-13.87-13.87a15.813 15.813 0 0 1 0-22.37l32.07-32.08a31.656 31.656 0 0 1 44.75 0zm-22.75 30.96a10.55 10.55 0 0 0 0-14.92l-26.48-26.48a10.538 10.538 0 0 0 -14.91 0l-7.28 7.27 41.4 41.4z"/><path fill="#e4f5ff" d="m315.94 217.82a10.55 10.55 0 0 1 0 14.92l-7.27 7.27-41.4-41.4 7.28-7.27a10.538 10.538 0 0 1 14.91 0z"/><path fill="#fedb41" d="m242.55 236.91 26.98 26.99-.22.22-15.24 15.98-17.85-2-9.39 9.39 1.8 18.99-23.27 2.48-2.39 23.18-34.93 2.53 3.87-27.12 70.42-70.42z"/></svg>